<svg aria-hidden="true" style="position: absolute; width: 0; height: 0; overflow: hidden;" version="1.1" xmlns="http://www.w3.org/2000/svg" xmlns:xlink="http://www.w3.org/1999/xlink">
<defs>
<symbol id="icon-Modal_close" viewBox="0 0 32 32"><path d="M18.194 17.029l11.749 11.749-1.166 1.166-12.777-12.777-12.777 12.777-1.166-1.166 12.777-12.777-12.777-12.777 1.166-1.166 12.777 12.777 12.777-12.777 1.166 1.166-12.777 12.777 1.029 1.029z"></path>
<path fill="none" stroke="#000" style="stroke: var(--color1, #000)" stroke-linejoin="miter" stroke-linecap="butt" stroke-miterlimit="4" stroke-width="2.9091" d="M18.194 17.029l11.749 11.749-1.166 1.166-12.777-12.777-12.777 12.777-1.166-1.166 12.777-12.777-12.777-12.777 1.166-1.166 12.777 12.777 12.777-12.777 1.166 1.166-12.777 12.777 1.029 1.029z"></path>
<path fill="none" stroke="#000" style="stroke: var(--color1, #000)" stroke-linejoin="miter" stroke-linecap="butt" stroke-miterlimit="4" stroke-width="2.9091" d="M18.194 17.029l11.749 11.749-1.166 1.166-12.777-12.777-12.777 12.777-1.166-1.166 12.777-12.777-12.777-12.777 1.166-1.166 12.777 12.777 12.777-12.777 1.166 1.166-12.777 12.777 1.029 1.029z"></path>
</symbol>
</defs>
</svg>
